<?xml version="1.0" standalone="no"?>
<!DOCTYPE svg PUBLIC "-//W3C//DTD SVG 20010904//EN"
 "http://www.w3.org/TR/2001/REC-SVG-20010904/DTD/svg10.dtd">
<svg version="1.0" xmlns="http://www.w3.org/2000/svg"
 width="197.000000pt" height="49.000000pt" viewBox="0 0 197.000000 49.000000"
 preserveAspectRatio="xMidYMid meet">

<g transform="translate(0.000000,49.000000) scale(0.100000,-0.100000)"
fill="#E8F0FE" stroke="none">
<path d="M170 235 l0 -185 35 0 c32 0 35 2 35 30 0 47 25 49 69 6 32 -31 43
-36 85 -36 l48 0 -36 42 -36 42 30 29 c77 75 58 204 -36 243 -19 8 -68 14
-114 14 l-80 0 0 -185z m179 89 c45 -57 10 -131 -64 -136 l-40 -3 -3 83 -3 82
45 0 c36 0 48 -5 65 -26z"/>
<path d="M757 338 c-24 -46 -68 -129 -96 -185 l-51 -103 38 0 c32 0 41 5 50
25 11 24 15 25 107 25 93 0 95 -1 101 -25 5 -22 12 -25 51 -25 l44 0 -92 178
c-50 97 -95 181 -99 185 -4 5 -28 -29 -53 -75z m76 -113 l27 -55 -56 0 c-31 0
-54 4 -52 8 2 4 12 29 23 55 11 26 22 47 25 47 3 0 18 -25 33 -55z"/>
<path d="M1170 235 l0 -185 35 0 c32 0 35 2 35 30 0 47 25 49 69 6 32 -31 43
-36 85 -36 l48 0 -36 42 -36 42 30 29 c77 75 58 204 -36 243 -19 8 -68 14
-114 14 l-80 0 0 -185z m179 89 c45 -57 10 -131 -64 -136 l-40 -3 -3 83 -3 82
45 0 c36 0 48 -5 65 -26z"/>
<path d="M1650 235 l0 -185 115 0 115 0 0 35 0 35 -80 0 -80 0 0 45 0 45 70 0
70 0 0 35 0 34 -67 3 -68 3 -3 33 -3 32 60 0 61 0 0 35 0 35 -95 0 -95 0 0
-185z"/>
<path d="M512 108 c-28 -28 -1 -71 39 -61 23 6 31 30 19 54 -12 21 -40 25 -58
7z"/>
<path d="M1042 108 c-28 -28 -1 -71 39 -61 23 6 31 30 19 54 -12 21 -40 25
-58 7z"/>
<path d="M1512 108 c-28 -28 -1 -71 39 -61 23 6 31 30 19 54 -12 21 -40 25
-58 7z"/>
</g>
</svg>
